<?xml version="1.0" standalone="no"?><!DOCTYPE svg PUBLIC "-//W3C//DTD SVG 1.1//EN" "http://www.w3.org/Graphics/SVG/1.1/DTD/svg11.dtd"><svg t="1572423224610" class="icon" viewBox="0 0 1024 1024" version="1.1" xmlns="http://www.w3.org/2000/svg" p-id="1385" xmlns:xlink="http://www.w3.org/1999/xlink" width="200" height="200"><defs><style type="text/css"></style></defs><path d="M505.474971 192.273581c-187.732652 3.01365-337.501498 157.582518-334.651485 345.328805v358.406137h682.353028V550.638808A352.828839 352.828839 0 0 0 505.474971 192.273581z m285.792178 639.957386H418.91095V511.993182h-61.909365V832.230967h-124.268734V537.602386c-1.363642-152.632496 120.150533-278.046689 272.728484-281.605795 160.24162 2.550011 288.124006 134.400597 285.792177 294.642217z m186.191735 128.005114v63.763919H46.541116v-63.763919zM543.179684 128.005114h-62.373004V0h62.373004z m-321.628701 115.909605l-74.93215-95.904971 46.541115-40.022905 76.800341 95.877698z m575.3071 0l-46.541116-41.441093 79.595808-95.454969 46.541116 41.891095z" p-id="1386"></path></svg>