<svg class="icon" viewBox="0 0 1024 1024" xmlns="http://www.w3.org/2000/svg" width="200" height="200"><defs><style/></defs><path d="M384 582.4c0 70.4 57.6 121.6 128 121.6s128-57.6 128-121.6c0-70.4-70.4-96-128-268.8C473.6 454.4 384 512 384 582.4zm224-160c19.2 0 32-12.8 32-32s-19.2-25.6-32-70.4c-12.8 38.4-32 51.2-32 70.4 0 19.2 12.8 32 32 32z"/><path d="M512 51.2C256 51.2 44.8 256 44.8 512S256 972.8 512 972.8 979.2 761.6 979.2 512C979.2 256 768 51.2 512 51.2zm0 896C268.8 947.2 76.8 748.8 76.8 512S268.8 76.8 512 76.8 947.2 275.2 947.2 512 755.2 947.2 512 947.2z"/></svg>